<svg width="65" height="65" viewBox="0 0 65 65" fill="none" xmlns="http://www.w3.org/2000/svg">
<g clip-path="url(#clip0_347_597)">
<path d="M20.3179 0H27.3V2.91958H23.2375V5.83917H27.3V8.75875H20.3179V0ZM28.6947 0H35.6795V2.54042H31.617V3.04688H35.6795V8.88604H28.6947V6.22104H32.7572V5.71188H28.6947V0ZM37.077 0H44.0564V2.54042H39.9939V3.04688H44.0564V8.88604H37.077V6.22104H41.1395V5.71188H37.077V0Z" fill="url(#paint0_linear_347_597)"/>
<path fill-rule="evenodd" clip-rule="evenodd" d="M32.4756 64.9999L13.669 59.7783L8.125 12.7751H56.875L51.3338 59.7729L32.4756 64.9999ZM19.0856 34.0518L19.6029 39.8151H39.5823L38.9133 47.2901L32.4838 49.0289H32.4783L26.0596 47.2956L25.6479 42.6995H19.8602L20.6673 51.7508L32.4756 55.0279L44.3029 51.7508L45.7437 35.5983L45.8846 34.0518L46.9246 22.3816H18.0483L18.5737 28.1476H40.6088L40.0833 34.0518H19.0856Z" fill="url(#paint1_linear_347_597)"/>
</g>
<defs>
<linearGradient id="paint0_linear_347_597" x1="32.1871" y1="0" x2="32.1871" y2="8.88604" gradientUnits="userSpaceOnUse">
<stop offset="0.489583" stop-color="#39355B"/>
<stop offset="1" stop-color="#0C0C0C"/>
</linearGradient>
<linearGradient id="paint1_linear_347_597" x1="32.5" y1="12.7751" x2="32.5" y2="64.9999" gradientUnits="userSpaceOnUse">
<stop offset="0.489583" stop-color="#39355B"/>
<stop offset="1" stop-color="#0C0C0C"/>
</linearGradient>
<clipPath id="clip0_347_597">
<rect width="65" height="65" fill="white"/>
</clipPath>
</defs>
</svg>
