<svg width="65" height="65" viewBox="0 0 65 65" fill="none" xmlns="http://www.w3.org/2000/svg">
<path d="M23.0208 5.41675C20.8659 5.41675 18.7992 6.27277 17.2755 7.79651C15.7518 9.32024 14.8958 11.3869 14.8958 13.5417C14.8958 15.6966 15.7518 17.7633 17.2755 19.287C18.7992 20.8107 20.8659 21.6667 23.0208 21.6667H41.9791C44.134 21.6667 46.2006 20.8107 47.7243 19.287C49.2481 17.7633 50.1041 15.6966 50.1041 13.5417C50.1041 11.3869 49.2481 9.32024 47.7243 7.79651C46.2006 6.27277 44.134 5.41675 41.9791 5.41675H23.0208ZM41.9791 24.3751C39.8242 24.3751 37.7576 25.2311 36.2338 26.7548C34.7101 28.2786 33.8541 30.3452 33.8541 32.5001C33.8541 34.655 34.7101 36.7216 36.2338 38.2453C37.7576 39.7691 39.8242 40.6251 41.9791 40.6251C44.134 40.6251 46.2006 39.7691 47.7243 38.2453C49.2481 36.7216 50.1041 34.655 50.1041 32.5001C50.1041 30.3452 49.2481 28.2786 47.7243 26.7548C46.2006 25.2311 44.134 24.3751 41.9791 24.3751ZM14.8958 32.5001C14.8958 30.3452 15.7518 28.2786 17.2755 26.7548C18.7992 25.2311 20.8659 24.3751 23.0208 24.3751H31.1458V40.6251H23.0208C20.8659 40.6251 18.7992 39.7691 17.2755 38.2453C15.7518 36.7216 14.8958 34.655 14.8958 32.5001ZM23.0208 43.3334C21.4138 43.3334 19.8429 43.8099 18.5067 44.7027C17.1706 45.5955 16.1292 46.8645 15.5142 48.3491C14.8993 49.8338 14.7384 51.4674 15.0519 53.0435C15.3654 54.6196 16.1392 56.0674 17.2755 57.2037C18.4118 58.34 19.8596 59.1138 21.4356 59.4273C23.0117 59.7408 24.6454 59.5799 26.1301 58.9649C27.6147 58.35 28.8837 57.3086 29.7764 55.9724C30.6692 54.6363 31.1458 53.0654 31.1458 51.4584V43.3334H23.0208Z" fill="url(#paint0_linear_347_600)"/>
<defs>
<linearGradient id="paint0_linear_347_600" x1="32.4999" y1="5.41675" x2="32.4999" y2="59.5834" gradientUnits="userSpaceOnUse">
<stop offset="0.489583" stop-color="#39355B"/>
<stop offset="1" stop-color="#0C0C0C"/>
</linearGradient>
</defs>
</svg>
