<svg width="44" height="43" viewBox="0 0 44 43" fill="none" xmlns="http://www.w3.org/2000/svg">
<path fill-rule="evenodd" clip-rule="evenodd" d="M21.8995 0.513062C10.153 0.513062 0.626953 10.0366 0.626953 21.7856C0.626953 31.1841 6.72195 39.1581 15.1745 41.9706C16.2375 42.1676 16.628 41.5091 16.628 40.9471C16.628 40.4401 16.608 38.7641 16.599 36.9871C10.6805 38.2736 9.43195 34.4771 9.43195 34.4771C8.46445 32.0181 7.06995 31.3641 7.06995 31.3641C5.13995 30.0441 7.21495 30.0711 7.21495 30.0711C9.35145 30.2211 10.4765 32.2636 10.4765 32.2636C12.3735 35.5156 15.453 34.5751 16.6665 34.0316C16.858 32.6566 17.409 31.7176 18.0175 31.1866C13.2925 30.6491 8.32545 28.8246 8.32545 20.6736C8.32545 18.3511 9.15645 16.4536 10.5175 14.9636C10.2965 14.4276 9.56845 12.2636 10.7235 9.33356C10.7235 9.33356 12.5095 8.76256 16.5735 11.5151C18.271 11.0436 20.091 10.8071 21.8985 10.7991C23.7065 10.8076 25.5275 11.0441 27.2275 11.5151C31.2875 8.76306 33.0715 9.33406 33.0715 9.33406C34.2295 12.2641 33.5015 14.4276 33.2805 14.9641C34.6445 16.4531 35.4695 18.3511 35.4695 20.6741C35.4695 28.8441 30.493 30.6431 25.756 31.1691C26.519 31.8291 27.199 33.1241 27.199 35.1091C27.199 37.9551 27.175 40.2456 27.175 40.9461C27.175 41.5111 27.558 42.1751 28.636 41.9661C37.084 39.1501 43.171 31.1791 43.171 21.7836C43.172 10.0371 33.648 0.513062 21.8995 0.513062Z" fill="white"/>
</svg>
