<svg width="48" height="44" viewBox="0 0 48 44" fill="none" xmlns="http://www.w3.org/2000/svg">
<path d="M22.8611 4.12234C23.1717 3.81218 23.5926 3.63796 24.0316 3.63796C24.4705 3.63796 24.8914 3.81218 25.202 4.12234L44.3924 23.3128C44.544 23.4755 44.7269 23.606 44.93 23.6965C45.1332 23.787 45.3525 23.8357 45.5749 23.8396C45.7973 23.8436 46.0182 23.8027 46.2244 23.7194C46.4306 23.6361 46.618 23.5121 46.7753 23.3548C46.9325 23.1975 47.0565 23.0102 47.1398 22.804C47.2231 22.5977 47.264 22.3768 47.2601 22.1544C47.2562 21.9321 47.2075 21.7127 47.117 21.5096C47.0265 21.3064 46.8959 21.1236 46.7332 20.9719L27.545 1.78151C27.0836 1.32011 26.5359 0.954108 25.933 0.704401C25.3302 0.454694 24.6841 0.326172 24.0316 0.326172C23.379 0.326172 22.7329 0.454694 22.1301 0.704401C21.5272 0.954108 20.9795 1.32011 20.5181 1.78151L1.32768 20.9719C1.02612 21.2844 0.859374 21.7029 0.863351 22.1372C0.867328 22.5714 1.04171 22.9867 1.34894 23.2937C1.65617 23.6006 2.07166 23.7746 2.50593 23.7782C2.94019 23.7817 3.35849 23.6146 3.67072 23.3128L22.8611 4.12234Z" fill="white"/>
<path d="M24.0317 7.63821L42.0495 25.656C42.1158 25.7222 42.182 25.7841 42.2505 25.8459V39.5332C42.2505 41.8188 40.3955 43.6738 38.1099 43.6738H30.6567C30.2175 43.6738 29.7962 43.4993 29.4856 43.1887C29.175 42.8781 29.0005 42.4568 29.0005 42.0175V32.08C29.0005 31.6408 28.826 31.2195 28.5154 30.9089C28.2048 30.5983 27.7835 30.4238 27.3442 30.4238H20.7192C20.28 30.4238 19.8587 30.5983 19.5481 30.9089C19.2375 31.2195 19.063 31.6408 19.063 32.08V42.0175C19.063 42.4568 18.8885 42.8781 18.5779 43.1887C18.2673 43.4993 17.846 43.6738 17.4067 43.6738H9.95361C8.85545 43.6738 7.80227 43.2375 7.02575 42.461C6.24923 41.6845 5.81299 40.6313 5.81299 39.5332V25.8459C5.88169 25.7845 5.9487 25.7211 6.01395 25.656L24.0317 7.63379V7.63821Z" fill="white"/>
</svg>
