<svg width="65" height="65" viewBox="0 0 65 65" fill="none" xmlns="http://www.w3.org/2000/svg">
<g clip-path="url(#clip0_347_589)">
<mask id="mask0_347_589" style="mask-type:luminance" maskUnits="userSpaceOnUse" x="0" y="0" width="65" height="65">
<path d="M0 0H65V65H0V0Z" fill="white"/>
</mask>
<g mask="url(#mask0_347_589)">
<path d="M13.7583 0H16.6887V2.89521H19.37V0H22.3004V8.76417H19.37V5.83104H16.6887V8.76417H13.761L13.7583 0ZM26.1516 2.90604H23.5733V0H31.6631V2.90604H29.0821V8.76417H26.1516V2.90604ZM32.9468 0H36.0018L37.8814 3.07938L39.7583 0H42.8133V8.76417H39.8964V4.42L37.8814 7.53729H37.83L35.8123 4.42271V8.76417H32.9468V0ZM44.2704 0H47.2035V5.86896H51.3202V8.76688H44.2704V0Z" fill="url(#paint0_linear_347_589)"/>
<path fill-rule="evenodd" clip-rule="evenodd" d="M13.6662 59.7783L8.125 12.7751H56.875L51.331 59.7729L32.4729 64.9999L13.6662 59.7783ZM24.8706 34.0491L24.3452 28.1449H46.4046L46.9192 22.3816H18.0483L19.6029 39.8151H39.5823L38.9133 47.2901L32.4838 49.0289H32.4783L26.0596 47.2956L25.6479 42.6995H19.8575L20.6646 51.7508L32.4729 55.0279L44.3002 51.7508L45.741 35.5983L45.8819 34.0518H24.8706V34.0491Z" fill="url(#paint1_linear_347_589)"/>
</g>
</g>
<defs>
<linearGradient id="paint0_linear_347_589" x1="32.5392" y1="0" x2="32.5392" y2="8.76688" gradientUnits="userSpaceOnUse">
<stop offset="0.489583" stop-color="#39355B"/>
<stop offset="1" stop-color="#0C0C0C"/>
</linearGradient>
<linearGradient id="paint1_linear_347_589" x1="32.5" y1="12.7751" x2="32.5" y2="64.9999" gradientUnits="userSpaceOnUse">
<stop offset="0.489583" stop-color="#39355B"/>
<stop offset="1" stop-color="#0C0C0C"/>
</linearGradient>
<clipPath id="clip0_347_589">
<rect width="65" height="65" fill="white"/>
</clipPath>
</defs>
</svg>
