<svg width="61" height="61" viewBox="0 0 61 61" fill="none" xmlns="http://www.w3.org/2000/svg">
<path d="M19.7112 5.64575H40.7112C48.7112 5.64575 55.2112 12.1458 55.2112 20.1458V41.1458C55.2112 44.9914 53.6835 48.6795 50.9643 51.3988C48.245 54.1181 44.5569 55.6458 40.7112 55.6458H19.7112C11.7112 55.6458 5.21121 49.1458 5.21121 41.1458V20.1458C5.21121 16.3001 6.73889 12.612 9.45816 9.8927C12.1774 7.17343 15.8656 5.64575 19.7112 5.64575ZM19.2112 10.6458C16.8243 10.6458 14.5351 11.594 12.8473 13.2818C11.1594 14.9696 10.2112 17.2588 10.2112 19.6458V41.6458C10.2112 46.6208 14.2362 50.6458 19.2112 50.6458H41.2112C43.5982 50.6458 45.8873 49.6975 47.5752 48.0097C49.263 46.3219 50.2112 44.0327 50.2112 41.6458V19.6458C50.2112 14.6708 46.1862 10.6458 41.2112 10.6458H19.2112ZM43.3362 14.3958C44.165 14.3958 44.9599 14.725 45.5459 15.311C46.132 15.8971 46.4612 16.692 46.4612 17.5208C46.4612 18.3496 46.132 19.1444 45.5459 19.7305C44.9599 20.3165 44.165 20.6458 43.3362 20.6458C42.5074 20.6458 41.7126 20.3165 41.1265 19.7305C40.5404 19.1444 40.2112 18.3496 40.2112 17.5208C40.2112 16.692 40.5404 15.8971 41.1265 15.311C41.7126 14.725 42.5074 14.3958 43.3362 14.3958ZM30.2112 18.1458C33.5264 18.1458 36.7058 19.4627 39.05 21.8069C41.3943 24.1511 42.7112 27.3305 42.7112 30.6458C42.7112 33.961 41.3943 37.1404 39.05 39.4846C36.7058 41.8288 33.5264 43.1458 30.2112 43.1458C26.896 43.1458 23.7166 41.8288 21.3724 39.4846C19.0282 37.1404 17.7112 33.961 17.7112 30.6458C17.7112 27.3305 19.0282 24.1511 21.3724 21.8069C23.7166 19.4627 26.896 18.1458 30.2112 18.1458ZM30.2112 23.1458C28.2221 23.1458 26.3144 23.9359 24.9079 25.3425C23.5014 26.749 22.7112 28.6566 22.7112 30.6458C22.7112 32.6349 23.5014 34.5425 24.9079 35.9491C26.3144 37.3556 28.2221 38.1458 30.2112 38.1458C32.2003 38.1458 34.108 37.3556 35.5145 35.9491C36.921 34.5425 37.7112 32.6349 37.7112 30.6458C37.7112 28.6566 36.921 26.749 35.5145 25.3425C34.108 23.9359 32.2003 23.1458 30.2112 23.1458Z" fill="url(#paint0_linear_346_384)"/>
<defs>
<linearGradient id="paint0_linear_346_384" x1="30.2112" y1="5.64575" x2="30.2112" y2="55.6458" gradientUnits="userSpaceOnUse">
<stop offset="0.489583" stop-color="#39355B"/>
<stop offset="1" stop-color="#0C0C0C"/>
</linearGradient>
</defs>
</svg>
