<svg width="65" height="65" viewBox="0 0 65 65" fill="none" xmlns="http://www.w3.org/2000/svg">
<path d="M0 0H65V65H0V0ZM59.6754 49.4975C59.2015 46.5319 57.2704 44.0402 51.5423 41.7165C49.549 40.7821 47.3335 40.1321 46.6754 38.629C46.429 37.7352 46.391 37.2477 46.5508 36.7196C46.9571 34.97 49.029 34.4446 50.654 34.9321C51.7102 35.2571 52.6852 36.0696 53.2973 37.3696C56.0977 35.5387 56.0977 35.5387 58.0504 34.3227C57.3192 33.1852 56.9562 32.695 56.4633 32.2102C54.7571 30.3008 52.4848 29.3258 48.7879 29.4098L46.8785 29.6508C45.0477 30.0977 43.3035 31.0727 42.2473 32.3727C39.1598 35.8692 40.0508 41.9629 43.7883 44.4817C47.4852 47.2442 52.891 47.8508 53.5817 50.4535C54.2317 53.6223 51.2254 54.6379 48.2571 54.2723C46.0606 53.7848 44.8446 52.6852 43.504 50.654L38.5477 53.5004C39.1165 54.8004 39.7665 55.3665 40.7415 56.504C45.454 61.2598 57.2352 61.016 59.3504 53.7848C59.429 53.541 60.0004 51.8754 59.5508 49.316L59.6754 49.4975ZM35.3465 29.8756H29.2581C29.2581 35.1244 29.2337 40.3406 29.2337 45.5975C29.2337 48.9342 29.4044 51.9973 28.86 52.9398C27.9662 54.8058 25.6642 54.5675 24.6187 54.2398C23.5462 53.709 23.0019 52.9777 22.3708 51.9242C22.2002 51.6398 22.0729 51.3933 22.0269 51.3933L17.0842 54.4402C17.9102 56.1465 19.1154 57.6144 20.67 58.5487C22.9856 59.93 26.0975 60.3769 29.3556 59.6456C31.4762 59.0335 33.3044 57.7742 34.2604 55.8242C35.6417 53.3054 35.3492 50.2179 35.3356 46.7621C35.3681 41.1992 35.3356 35.6335 35.3356 30.0273L35.3465 29.8756Z" fill="url(#paint0_linear_347_588)"/>
<defs>
<linearGradient id="paint0_linear_347_588" x1="32.5" y1="0" x2="32.5" y2="65" gradientUnits="userSpaceOnUse">
<stop offset="0.489583" stop-color="#39355B"/>
<stop offset="1" stop-color="#0C0C0C"/>
</linearGradient>
</defs>
</svg>
