<svg width="51" height="51" viewBox="0 0 51 51" fill="none" xmlns="http://www.w3.org/2000/svg">
<g clip-path="url(#clip0_347_387)">
<path d="M0.211212 4.227C0.211212 2.24888 1.85496 0.645752 3.88309 0.645752H46.5393C48.5675 0.645752 50.2112 2.24888 50.2112 4.227V47.0645C50.2112 49.0426 48.5675 50.6458 46.5393 50.6458H3.88309C1.85496 50.6458 0.211212 49.0426 0.211212 47.0645V4.227ZM15.6581 42.502V19.9239H8.15496V42.502H15.6581ZM11.9081 16.8395C14.5237 16.8395 16.1518 15.1083 16.1518 12.9395C16.105 10.7239 14.5268 9.0395 11.9581 9.0395C9.38934 9.0395 7.71121 10.727 7.71121 12.9395C7.71121 15.1083 9.33934 16.8395 11.8581 16.8395H11.9081ZM27.2456 42.502V29.8926C27.2456 29.2176 27.2956 28.5426 27.4956 28.0614C28.0362 26.7145 29.2706 25.3176 31.3456 25.3176C34.0612 25.3176 35.1456 27.3864 35.1456 30.4239V42.502H42.6487V29.552C42.6487 22.6145 38.9487 19.3895 34.0112 19.3895C30.03 19.3895 28.2456 21.577 27.2456 23.1176V23.1958H27.1956C27.2122 23.1697 27.2289 23.1436 27.2456 23.1176V19.9239H19.7456C19.8393 22.0426 19.7456 42.502 19.7456 42.502H27.2456Z" fill="url(#paint0_linear_347_387)"/>
</g>
<defs>
<linearGradient id="paint0_linear_347_387" x1="25.2112" y1="0.645752" x2="25.2112" y2="50.6458" gradientUnits="userSpaceOnUse">
<stop offset="0.489583" stop-color="#39355B"/>
<stop offset="1" stop-color="#0C0C0C"/>
</linearGradient>
<clipPath id="clip0_347_387">
<rect width="50" height="50" fill="white" transform="translate(0.211212 0.645752)"/>
</clipPath>
</defs>
</svg>
