<svg width="65" height="65" viewBox="0 0 65 65" fill="none" xmlns="http://www.w3.org/2000/svg">
<path d="M32.5 5.41675C28.9433 5.41675 25.4215 6.11728 22.1356 7.47834C18.8497 8.83941 15.8641 10.8344 13.3492 13.3493C8.27004 18.4284 5.41663 25.3171 5.41663 32.5001C5.41663 44.4709 13.1895 54.6272 23.9416 58.2292C25.2958 58.4459 25.7291 57.6063 25.7291 56.8751V52.298C18.227 53.923 16.6291 48.6688 16.6291 48.6688C15.3833 45.5272 13.6229 44.6876 13.6229 44.6876C11.1583 43.0084 13.8125 43.0626 13.8125 43.0626C16.5208 43.2522 17.9562 45.8522 17.9562 45.8522C20.3125 49.9688 24.2937 48.7501 25.8375 48.1001C26.0812 46.3397 26.7854 45.148 27.5437 44.4709C21.5312 43.7938 15.2208 41.4647 15.2208 31.1459C15.2208 28.1397 16.25 25.7292 18.0104 23.8063C17.7395 23.1292 16.7916 20.3126 18.2812 16.6563C18.2812 16.6563 20.5562 15.9251 25.7291 19.4188C27.8687 18.823 30.1979 18.5251 32.5 18.5251C34.802 18.5251 37.1312 18.823 39.2708 19.4188C44.4437 15.9251 46.7187 16.6563 46.7187 16.6563C48.2083 20.3126 47.2604 23.1292 46.9895 23.8063C48.75 25.7292 49.7791 28.1397 49.7791 31.1459C49.7791 41.4917 43.4416 43.7667 37.402 44.4438C38.377 45.2834 39.2708 46.9355 39.2708 49.4542V56.8751C39.2708 57.6063 39.7041 58.473 41.0854 58.2292C51.8375 54.6001 59.5833 44.4709 59.5833 32.5001C59.5833 28.9434 58.8828 25.4216 57.5217 22.1357C56.1606 18.8498 54.1657 15.8642 51.6508 13.3493C49.1359 10.8344 46.1502 8.83941 42.8643 7.47834C39.5784 6.11728 36.0566 5.41675 32.5 5.41675Z" fill="url(#paint0_linear_347_585)"/>
<defs>
<linearGradient id="paint0_linear_347_585" x1="32.5" y1="5.41675" x2="32.5" y2="58.2712" gradientUnits="userSpaceOnUse">
<stop offset="0.489583" stop-color="#39355B"/>
<stop offset="1" stop-color="#0C0C0C"/>
</linearGradient>
</defs>
</svg>
