<svg width="65" height="65" viewBox="0 0 65 65" fill="none" xmlns="http://www.w3.org/2000/svg">
<g clip-path="url(#clip0_347_602)">
<path d="M49.7656 0H15.2344C6.82066 0 0 6.82066 0 15.2344V49.7656C0 58.1793 6.82066 65 15.2344 65H49.7656C58.1793 65 65 58.1793 65 49.7656V15.2344C65 6.82066 58.1793 0 49.7656 0Z" fill="url(#paint0_linear_347_602)"/>
<path d="M32.5003 37.3119C35.1166 37.3119 37.2372 35.191 37.2372 32.575C37.2372 29.959 35.1166 27.8381 32.5003 27.8381C29.8843 27.8381 27.7634 29.959 27.7634 32.575C27.7634 35.191 29.8843 37.3119 32.5003 37.3119Z" fill="#00D8FF" fill-opacity="0.2"/>
<path d="M32.5005 22.9438C38.8604 22.9438 44.7685 23.8564 49.2233 25.3902C54.5906 27.2379 57.8906 30.0388 57.8906 32.575C57.8906 35.2179 54.3933 38.1935 48.6294 40.1031C44.2719 41.5468 38.5376 42.3004 32.5005 42.3004C26.3108 42.3004 20.4494 41.593 16.0426 40.0871C10.4673 38.1815 7.10938 35.1677 7.10938 32.575C7.10938 30.0593 10.2604 27.2801 15.5523 25.4352C20.0236 23.8762 26.0774 22.9438 32.4995 22.9438H32.5005Z" stroke="#51CBFF" stroke-opacity="0.5" stroke-width="8.911"/>
<path d="M24.1163 27.787C27.2937 22.2777 31.0355 17.6155 34.5897 14.5229C38.8715 10.7963 42.9467 9.33689 45.1435 10.6036C47.433 11.9239 48.2635 16.4404 47.0384 22.3874C46.1129 26.8833 43.9004 32.227 40.8843 37.457C37.7919 42.819 34.2512 47.5432 30.7455 50.6073C26.3095 54.485 22.0208 55.8883 19.775 54.5931C17.5957 53.3373 16.7624 49.2187 17.808 43.7127C18.6913 39.0604 20.9082 33.3503 24.1153 27.787H24.1163Z" stroke="#51CBFF" stroke-opacity="0.5" stroke-width="8.911"/>
<path d="M24.1241 37.4711C20.9379 31.9679 18.7685 26.3967 17.8631 21.7731C16.773 16.2021 17.5436 11.9428 19.7387 10.6723C22.0261 9.3479 26.3534 10.884 30.8938 14.9156C34.3266 17.9634 37.8516 22.5482 40.8764 27.7731C43.9776 33.13 46.3018 38.5573 47.206 43.1245C48.3501 48.9045 47.4241 53.3206 45.1803 54.6194C43.0033 55.8798 39.0193 54.5455 34.7712 50.8898C31.182 47.8012 27.3419 43.0291 24.1241 37.4711Z" stroke="#51CBFF" stroke-opacity="0.5" stroke-width="8.911"/>
</g>
<defs>
<linearGradient id="paint0_linear_347_602" x1="32.5" y1="0" x2="32.5" y2="65" gradientUnits="userSpaceOnUse">
<stop offset="0.489583" stop-color="#39355B"/>
<stop offset="1" stop-color="#0C0C0C"/>
</linearGradient>
<clipPath id="clip0_347_602">
<rect width="65" height="65" fill="white"/>
</clipPath>
</defs>
</svg>
