<svg width="51" height="50" viewBox="0 0 51 50" fill="none" xmlns="http://www.w3.org/2000/svg">
<g clip-path="url(#clip0_350_641)">
<path d="M50.5 25C50.5 31.6304 47.8661 37.9893 43.1777 42.6777C38.4893 47.3661 32.1304 50 25.5 50C18.8696 50 12.5107 47.3661 7.82233 42.6777C3.13392 37.9893 0.5 31.6304 0.5 25C0.5 18.3696 3.13392 12.0107 7.82233 7.32233C12.5107 2.63392 18.8696 0 25.5 0C32.1304 0 38.4893 2.63392 43.1777 7.32233C47.8661 12.0107 50.5 18.3696 50.5 25ZM26.3969 18.4563C23.9656 19.4688 19.1031 21.5625 11.8156 24.7375C10.6344 25.2062 10.0125 25.6687 9.95625 26.1187C9.8625 26.8781 10.8156 27.1781 12.1125 27.5875L12.6594 27.7594C13.9344 28.175 15.6531 28.6594 16.5437 28.6781C17.3562 28.6969 18.2594 28.3656 19.2562 27.6781C26.0656 23.0813 29.5813 20.7594 29.8 20.7094C29.9563 20.6719 30.175 20.6281 30.3187 20.7594C30.4656 20.8875 30.45 21.1344 30.4344 21.2C30.3406 21.6031 26.6 25.0781 24.6656 26.8781C24.0625 27.4406 23.6344 27.8375 23.5469 27.9281C23.3542 28.125 23.1583 28.3188 22.9594 28.5094C21.7719 29.6531 20.8844 30.5094 23.0063 31.9094C24.0281 32.5844 24.8469 33.1375 25.6625 33.6937C26.55 34.3 27.4375 34.9031 28.5875 35.6594C28.8781 35.8469 29.1594 36.05 29.4313 36.2437C30.4656 36.9812 31.4 37.6438 32.5469 37.5375C33.2156 37.475 33.9063 36.85 34.2563 34.975C35.0844 30.5469 36.7125 20.9562 37.0875 17.0031C37.1104 16.6745 37.0968 16.3444 37.0469 16.0187C37.0175 15.756 36.8903 15.5139 36.6906 15.3406C36.4063 15.1443 36.0673 15.0427 35.7219 15.05C34.7844 15.0656 33.3375 15.5688 26.3969 18.4563Z" fill="url(#paint0_linear_350_641)"/>
</g>
<defs>
<linearGradient id="paint0_linear_350_641" x1="25.5" y1="0" x2="25.5" y2="50" gradientUnits="userSpaceOnUse">
<stop offset="0.489583" stop-color="#39355B"/>
<stop offset="1" stop-color="#0C0C0C"/>
</linearGradient>
<clipPath id="clip0_350_641">
<rect width="50" height="50" fill="white" transform="translate(0.5)"/>
</clipPath>
</defs>
</svg>
