<svg width="74" height="25" viewBox="0 0 74 25" fill="none" xmlns="http://www.w3.org/2000/svg">
<path d="M9.17067 11.5774H5.18761C5.13825 11.5774 5.09091 11.597 5.056 11.6319C5.0211 11.6668 5.00149 11.7142 5.00149 11.7635V13.7111C5.00149 13.7605 5.0211 13.8078 5.056 13.8427C5.09091 13.8776 5.13825 13.8973 5.18761 13.8973H6.741V16.3169C6.741 16.3169 6.39221 16.436 5.42697 16.436C4.28937 16.436 2.6995 16.0206 2.6995 12.5244C2.6995 9.02787 4.35526 8.5674 5.90977 8.5674C7.25508 8.5674 7.8343 8.80415 8.20357 8.91843C8.31897 8.95342 8.42692 8.83802 8.42692 8.73528L8.87101 6.85357C8.87173 6.82539 8.8656 6.79746 8.85315 6.77218C8.84071 6.74689 8.82231 6.725 8.79954 6.70839C8.64952 6.60118 7.73603 6.09045 5.42771 6.09045C2.76837 6.09045 0.0405273 7.22135 0.0405273 12.6606C0.0405273 18.0992 3.16369 18.9096 5.79549 18.9096C7.97464 18.9096 9.29649 17.9782 9.29649 17.9782C9.35084 17.9484 9.3568 17.8721 9.3568 17.8368V11.7632C9.3568 11.7138 9.33719 11.6665 9.30228 11.6315C9.26738 11.5966 9.22003 11.5774 9.17067 11.5774ZM29.5144 6.55502H27.2713C27.2468 6.55512 27.2226 6.56004 27.2 6.56951C27.1774 6.57898 27.157 6.5928 27.1397 6.61019C27.1225 6.62759 27.1089 6.6482 27.0997 6.67087C27.0904 6.69353 27.0857 6.71779 27.0859 6.74226L27.0866 11.0767H23.5905V6.74226C23.5906 6.71782 23.5859 6.69359 23.5767 6.67095C23.5675 6.64831 23.5539 6.62771 23.5367 6.61032C23.5196 6.59294 23.4991 6.5791 23.4766 6.56962C23.4541 6.56013 23.4299 6.55517 23.4055 6.55502H21.1627C21.1382 6.55512 21.114 6.56004 21.0914 6.56951C21.0688 6.57898 21.0484 6.5928 21.0311 6.61019C21.0139 6.62759 21.0003 6.6482 20.9911 6.67087C20.9818 6.69353 20.9771 6.71779 20.9773 6.74226V18.4793C20.9773 18.5824 21.0607 18.6665 21.1627 18.6665H23.4055C23.4299 18.6664 23.4541 18.6614 23.4767 18.6519C23.4992 18.6424 23.5197 18.6285 23.5369 18.6111C23.5541 18.5936 23.5676 18.573 23.5768 18.5503C23.586 18.5276 23.5907 18.5034 23.5905 18.4789V13.4587H27.0866L27.0807 18.4789C27.0807 18.5824 27.1641 18.6665 27.2668 18.6665H29.5144C29.5389 18.6664 29.5631 18.6614 29.5857 18.6519C29.6082 18.6424 29.6287 18.6285 29.6459 18.6111C29.663 18.5936 29.6766 18.573 29.6858 18.5503C29.695 18.5276 29.6996 18.5034 29.6994 18.4789V6.74189C29.6997 6.71744 29.6951 6.69318 29.6859 6.67052C29.6767 6.64786 29.6631 6.62724 29.6459 6.60986C29.6287 6.59249 29.6082 6.57869 29.5857 6.56928C29.5631 6.55987 29.5389 6.55502 29.5144 6.55502ZM11.957 6.82192C11.1589 6.82192 10.5111 7.47448 10.5111 8.28225C10.5111 9.08892 11.1589 9.74333 11.957 9.74333C12.7558 9.74333 13.4031 9.08892 13.4031 8.28225C13.4031 7.47448 12.7554 6.82192 11.957 6.82192ZM13.0573 10.3985H10.8216C10.7189 10.3985 10.6273 10.5042 10.6273 10.6069V18.3691C10.6273 18.5973 10.7695 18.665 10.9534 18.665H12.9672C13.1887 18.665 13.2427 18.5563 13.2427 18.3654V10.5857C13.2428 10.5613 13.2381 10.5371 13.2288 10.5144C13.2196 10.4918 13.2059 10.4713 13.1887 10.4539C13.1715 10.4366 13.151 10.4228 13.1285 10.4133C13.1059 10.4039 13.0818 10.3986 13.0573 10.3985ZM38.2236 10.416H35.9975C35.9731 10.4162 35.9489 10.4212 35.9264 10.4307C35.9039 10.4403 35.8835 10.4541 35.8663 10.4716C35.8492 10.489 35.8357 10.5096 35.8265 10.5323C35.8173 10.5549 35.8127 10.5792 35.8129 10.6036V16.3586C35.8129 16.3586 35.2471 16.7718 34.4449 16.7718C33.6427 16.7718 33.4297 16.4081 33.4297 15.6223V10.6036C33.4299 10.5791 33.4253 10.5549 33.4161 10.5322C33.4069 10.5095 33.3933 10.4888 33.3762 10.4714C33.359 10.454 33.3385 10.4401 33.316 10.4306C33.2934 10.4211 33.2692 10.4161 33.2447 10.416H30.9859C30.9365 10.4164 30.8892 10.4363 30.8545 10.4715C30.8198 10.5067 30.8004 10.5542 30.8006 10.6036V16.002C30.8006 18.336 32.1016 18.907 33.891 18.907C35.3591 18.907 36.5429 18.0955 36.5429 18.0955C36.5429 18.0955 36.5987 18.5236 36.6248 18.5738C36.6508 18.6244 36.7167 18.6754 36.7885 18.6754L38.2254 18.6691C38.25 18.669 38.2742 18.6641 38.2969 18.6546C38.3195 18.6451 38.3401 18.6313 38.3573 18.6139C38.3746 18.5964 38.3883 18.5758 38.3976 18.5531C38.4069 18.5304 38.4116 18.506 38.4116 18.4815L38.4104 10.6025C38.4102 10.5531 38.3906 10.5058 38.3557 10.4708C38.3209 10.4358 38.2737 10.416 38.2243 10.4156L38.2236 10.416ZM44.3069 10.1524C43.0427 10.1524 42.1828 10.7164 42.1828 10.7164V6.74189C42.183 6.71745 42.1783 6.69322 42.1691 6.67058C42.1598 6.64794 42.1463 6.62734 42.1291 6.60995C42.1119 6.59257 42.0915 6.57873 42.0689 6.56924C42.0464 6.55975 42.0222 6.5548 41.9978 6.55465H39.749C39.7245 6.55465 39.7002 6.5595 39.6776 6.56892C39.6549 6.57835 39.6343 6.59216 39.617 6.60956C39.5997 6.62696 39.586 6.64761 39.5768 6.67032C39.5675 6.69303 39.5628 6.71735 39.5629 6.74189V18.4789C39.5628 18.5034 39.5675 18.5278 39.5768 18.5505C39.586 18.5732 39.5997 18.5938 39.617 18.6112C39.6343 18.6286 39.6549 18.6424 39.6776 18.6519C39.7002 18.6613 39.7245 18.6661 39.749 18.6661H41.3095C41.3802 18.6661 41.4331 18.63 41.4722 18.5664C41.5105 18.5031 41.5667 18.0251 41.5667 18.0251C41.5667 18.0251 42.4862 18.8962 44.2276 18.8962C46.2712 18.8962 47.4438 17.8598 47.4438 14.2423C47.4438 10.6248 45.5714 10.1521 44.3065 10.1521L44.3069 10.1524ZM43.4283 16.7651C42.6567 16.7416 42.1329 16.3913 42.1329 16.3913V12.6744C42.1329 12.6744 42.6496 12.358 43.2832 12.3007C44.0846 12.2288 44.857 12.4712 44.857 14.383C44.857 16.3995 44.509 16.7974 43.4287 16.7647L43.4283 16.7651ZM19.7202 16.7211C19.6223 16.7211 19.3714 16.761 19.1134 16.761C18.287 16.761 18.0067 16.3768 18.0067 15.8795V12.5791H19.6893C19.7139 12.5791 19.7382 12.5743 19.7609 12.5648C19.7836 12.5554 19.8041 12.5415 19.8214 12.5241C19.8387 12.5066 19.8524 12.4859 19.8617 12.4632C19.871 12.4404 19.8756 12.4161 19.8754 12.3915V10.5839C19.8755 10.5594 19.8708 10.5351 19.8615 10.5124C19.8522 10.4897 19.8385 10.4691 19.8212 10.4518C19.8039 10.4344 19.7833 10.4206 19.7607 10.4112C19.7381 10.4018 19.7138 10.397 19.6893 10.397H18.0067L18.0041 8.17468C18.0041 8.09018 17.961 8.04811 17.8634 8.04811H15.5704C15.4818 8.04811 15.4338 8.08757 15.4338 8.17281V10.4696C15.4338 10.4696 14.2846 10.7469 14.2072 10.7692C14.1685 10.7805 14.1346 10.804 14.1104 10.8363C14.0862 10.8685 14.0732 10.9077 14.0732 10.9479V12.3911C14.073 12.4156 14.0777 12.4398 14.0869 12.4625C14.0961 12.4851 14.1097 12.5057 14.1269 12.5231C14.1441 12.5405 14.1645 12.5543 14.1871 12.5638C14.2096 12.5733 14.2338 12.5782 14.2582 12.5784H15.4338V16.0507C15.4338 18.6304 17.2429 18.8835 18.4639 18.8835C19.0211 18.8835 19.6886 18.7048 19.7987 18.6639C19.8657 18.639 19.9041 18.5701 19.9041 18.4953L19.9056 16.9076C19.9048 16.8584 19.885 16.8115 19.8503 16.7766C19.8155 16.7417 19.7686 16.7217 19.7195 16.7208L19.7202 16.7211Z" fill="white"/>
<path d="M59.4438 5.5H57.6438C56.5238 5.5 55.9638 5.5 55.5358 5.718C55.1595 5.90969 54.8535 6.21565 54.6618 6.592C54.4438 7.02 54.4438 7.58 54.4438 8.7V16.3C54.4438 17.42 54.4438 17.98 54.6618 18.408C54.8536 18.7843 55.1595 19.0903 55.5358 19.282C55.9628 19.5 56.5228 19.5 57.6408 19.5H65.2468C66.3648 19.5 66.9238 19.5 67.3508 19.282C67.7278 19.09 68.0338 18.784 68.2258 18.408C68.4438 17.98 68.4438 17.421 68.4438 16.303V14.5M69.4438 9.5V4.5M69.4438 4.5H64.4438M69.4438 4.5L62.4438 11.5" stroke="white" stroke-width="2" stroke-linecap="round" stroke-linejoin="round"/>
</svg>
