<svg width="120" height="25" viewBox="0 0 120 25" fill="none" xmlns="http://www.w3.org/2000/svg">
<path d="M6.00146 13.5508H3.10303V11.7227H6.00146C6.44938 11.7227 6.81396 11.6497 7.09521 11.5039C7.37646 11.3529 7.58219 11.1445 7.7124 10.8789C7.84261 10.6133 7.90771 10.3138 7.90771 9.98047C7.90771 9.64193 7.84261 9.32682 7.7124 9.03516C7.58219 8.74349 7.37646 8.50911 7.09521 8.33203C6.81396 8.15495 6.44938 8.06641 6.00146 8.06641H3.91553V17.6055H1.57178V6.23047H6.00146C6.89209 6.23047 7.65511 6.39193 8.29053 6.71484C8.93115 7.03255 9.42074 7.47266 9.75928 8.03516C10.0978 8.59766 10.2671 9.24089 10.2671 9.96484C10.2671 10.6992 10.0978 11.3346 9.75928 11.8711C9.42074 12.4076 8.93115 12.8216 8.29053 13.1133C7.65511 13.4049 6.89209 13.5508 6.00146 13.5508ZM13.9937 10.9961V17.6055H11.7437V9.15234H13.8608L13.9937 10.9961ZM16.5405 9.09766L16.5015 11.1836C16.3921 11.168 16.2593 11.1549 16.103 11.1445C15.952 11.1289 15.814 11.1211 15.689 11.1211C15.3713 11.1211 15.0952 11.1628 14.8608 11.2461C14.6317 11.3242 14.439 11.4414 14.2827 11.5977C14.1317 11.7539 14.0171 11.944 13.939 12.168C13.866 12.3919 13.8244 12.6471 13.814 12.9336L13.3608 12.793C13.3608 12.2461 13.4155 11.7435 13.5249 11.2852C13.6343 10.8216 13.7931 10.418 14.0015 10.0742C14.215 9.73047 14.4754 9.46484 14.7827 9.27734C15.09 9.08984 15.4416 8.99609 15.8374 8.99609C15.9624 8.99609 16.09 9.00651 16.2202 9.02734C16.3504 9.04297 16.4572 9.06641 16.5405 9.09766ZM17.0093 13.4648V13.3008C17.0093 12.681 17.0978 12.1107 17.2749 11.5898C17.452 11.0638 17.7098 10.6081 18.0483 10.2227C18.3869 9.83724 18.8035 9.53776 19.2983 9.32422C19.7931 9.10547 20.3608 8.99609 21.0015 8.99609C21.6421 8.99609 22.2124 9.10547 22.7124 9.32422C23.2124 9.53776 23.6317 9.83724 23.9702 10.2227C24.314 10.6081 24.5744 11.0638 24.7515 11.5898C24.9285 12.1107 25.0171 12.681 25.0171 13.3008V13.4648C25.0171 14.0794 24.9285 14.6497 24.7515 15.1758C24.5744 15.6966 24.314 16.1523 23.9702 16.543C23.6317 16.9284 23.215 17.2279 22.7202 17.4414C22.2254 17.6549 21.6577 17.7617 21.0171 17.7617C20.3765 17.7617 19.8062 17.6549 19.3062 17.4414C18.8114 17.2279 18.3921 16.9284 18.0483 16.543C17.7098 16.1523 17.452 15.6966 17.2749 15.1758C17.0978 14.6497 17.0093 14.0794 17.0093 13.4648ZM19.2593 13.3008V13.4648C19.2593 13.819 19.2905 14.1497 19.353 14.457C19.4155 14.7643 19.5145 15.0352 19.6499 15.2695C19.7905 15.4987 19.9728 15.6784 20.1968 15.8086C20.4207 15.9388 20.6942 16.0039 21.0171 16.0039C21.3296 16.0039 21.5978 15.9388 21.8218 15.8086C22.0457 15.6784 22.2254 15.4987 22.3608 15.2695C22.4963 15.0352 22.5952 14.7643 22.6577 14.457C22.7254 14.1497 22.7593 13.819 22.7593 13.4648V13.3008C22.7593 12.957 22.7254 12.6341 22.6577 12.332C22.5952 12.0247 22.4937 11.7539 22.353 11.5195C22.2176 11.2799 22.0379 11.0924 21.814 10.957C21.59 10.8216 21.3192 10.7539 21.0015 10.7539C20.6838 10.7539 20.4129 10.8216 20.189 10.957C19.9702 11.0924 19.7905 11.2799 19.6499 11.5195C19.5145 11.7539 19.4155 12.0247 19.353 12.332C19.2905 12.6341 19.2593 12.957 19.2593 13.3008ZM26.5249 9.15234H28.7827V18.1133C28.7827 18.7383 28.6681 19.2669 28.439 19.6992C28.2098 20.1315 27.8791 20.4596 27.4468 20.6836C27.0145 20.9076 26.491 21.0195 25.8765 21.0195C25.6838 21.0195 25.4963 21.0091 25.314 20.9883C25.1265 20.9674 24.9338 20.9336 24.7358 20.8867L24.7437 19.1602C24.8687 19.181 24.991 19.1966 25.1108 19.207C25.2254 19.2227 25.3426 19.2305 25.4624 19.2305C25.6968 19.2305 25.8921 19.1914 26.0483 19.1133C26.2046 19.0352 26.3218 18.9128 26.3999 18.7461C26.4832 18.5846 26.5249 18.3737 26.5249 18.1133V9.15234ZM26.3452 6.94922C26.3452 6.62109 26.4598 6.35026 26.689 6.13672C26.9233 5.92318 27.2306 5.81641 27.6108 5.81641C27.9963 5.81641 28.3035 5.92318 28.5327 6.13672C28.7619 6.35026 28.8765 6.62109 28.8765 6.94922C28.8765 7.27734 28.7619 7.54818 28.5327 7.76172C28.3035 7.97526 27.9963 8.08203 27.6108 8.08203C27.2306 8.08203 26.9233 7.97526 26.689 7.76172C26.4598 7.54818 26.3452 7.27734 26.3452 6.94922ZM34.4624 17.7617C33.8062 17.7617 33.2176 17.6576 32.6968 17.4492C32.1759 17.2357 31.7332 16.9414 31.3687 16.5664C31.0093 16.1914 30.7332 15.7565 30.5405 15.2617C30.3478 14.7617 30.2515 14.2305 30.2515 13.668V13.3555C30.2515 12.7148 30.3426 12.1289 30.5249 11.5977C30.7072 11.0664 30.9676 10.6055 31.3062 10.2148C31.6499 9.82422 32.0666 9.52474 32.5562 9.31641C33.0457 9.10286 33.5978 8.99609 34.2124 8.99609C34.8114 8.99609 35.3426 9.09505 35.8062 9.29297C36.2697 9.49089 36.6577 9.77214 36.9702 10.1367C37.2879 10.5013 37.5275 10.9388 37.689 11.4492C37.8504 11.9544 37.9312 12.5169 37.9312 13.1367V14.0742H31.2124V12.5742H35.7202V12.4023C35.7202 12.0898 35.6629 11.8112 35.5483 11.5664C35.439 11.3164 35.2723 11.1185 35.0483 10.9727C34.8244 10.8268 34.5379 10.7539 34.189 10.7539C33.8921 10.7539 33.6369 10.819 33.4233 10.9492C33.2098 11.0794 33.0353 11.2617 32.8999 11.4961C32.7697 11.7305 32.6707 12.0065 32.603 12.3242C32.5405 12.6367 32.5093 12.9805 32.5093 13.3555V13.668C32.5093 14.0065 32.5562 14.319 32.6499 14.6055C32.7489 14.8919 32.8869 15.1393 33.064 15.3477C33.2463 15.556 33.465 15.7174 33.7202 15.832C33.9806 15.9466 34.2749 16.0039 34.603 16.0039C35.0093 16.0039 35.3869 15.9258 35.7358 15.7695C36.09 15.6081 36.3947 15.3659 36.6499 15.043L37.7437 16.2305C37.5666 16.4857 37.3244 16.7305 37.0171 16.9648C36.715 17.1992 36.3504 17.3919 35.9233 17.543C35.4963 17.6888 35.0093 17.7617 34.4624 17.7617ZM42.7046 16.0039C42.9806 16.0039 43.2254 15.9518 43.439 15.8477C43.6525 15.7383 43.8192 15.5872 43.939 15.3945C44.064 15.1966 44.1291 14.9648 44.1343 14.6992H46.2515C46.2463 15.293 46.0874 15.8216 45.7749 16.2852C45.4624 16.7435 45.0431 17.1055 44.5171 17.3711C43.991 17.6315 43.4025 17.7617 42.7515 17.7617C42.0952 17.7617 41.5223 17.6523 41.0327 17.4336C40.5483 17.2148 40.1447 16.9128 39.8218 16.5273C39.4989 16.1367 39.2567 15.6836 39.0952 15.168C38.9338 14.6471 38.853 14.0898 38.853 13.4961V13.2695C38.853 12.6706 38.9338 12.1133 39.0952 11.5977C39.2567 11.0768 39.4989 10.6237 39.8218 10.2383C40.1447 9.84766 40.5483 9.54297 41.0327 9.32422C41.5171 9.10547 42.0848 8.99609 42.7358 8.99609C43.4285 8.99609 44.0353 9.12891 44.5562 9.39453C45.0822 9.66016 45.4937 10.0404 45.7905 10.5352C46.0926 11.0247 46.2463 11.6055 46.2515 12.2773H44.1343C44.1291 11.9961 44.0692 11.7409 43.9546 11.5117C43.8452 11.2826 43.6838 11.1003 43.4702 10.9648C43.2619 10.8242 43.0041 10.7539 42.6968 10.7539C42.3687 10.7539 42.1004 10.8242 41.8921 10.9648C41.6838 11.1003 41.5223 11.2878 41.4077 11.5273C41.2931 11.7617 41.2124 12.0299 41.1655 12.332C41.1239 12.6289 41.103 12.9414 41.103 13.2695V13.4961C41.103 13.8242 41.1239 14.1393 41.1655 14.4414C41.2072 14.7435 41.2853 15.0117 41.3999 15.2461C41.5197 15.4805 41.6838 15.6654 41.8921 15.8008C42.1004 15.9362 42.3713 16.0039 42.7046 16.0039ZM51.6968 9.15234V10.7461H46.7749V9.15234H51.6968ZM47.9937 7.06641H50.2437V15.0586C50.2437 15.3034 50.2749 15.4909 50.3374 15.6211C50.4051 15.7513 50.5041 15.8424 50.6343 15.8945C50.7645 15.9414 50.9285 15.9648 51.1265 15.9648C51.2671 15.9648 51.3921 15.9596 51.5015 15.9492C51.616 15.9336 51.7124 15.918 51.7905 15.9023L51.7983 17.5586C51.6056 17.6211 51.3973 17.6706 51.1733 17.707C50.9494 17.7435 50.702 17.7617 50.4312 17.7617C49.9364 17.7617 49.5041 17.681 49.1343 17.5195C48.7697 17.3529 48.4884 17.0872 48.2905 16.7227C48.0926 16.3581 47.9937 15.8789 47.9937 15.2852V7.06641ZM59.2124 10.7773V20.8555H56.9624V9.15234H59.0483L59.2124 10.7773ZM64.564 13.2852V13.4492C64.564 14.0638 64.491 14.6341 64.3452 15.1602C64.2046 15.6862 63.9963 16.1445 63.7202 16.5352C63.4442 16.9206 63.1004 17.2227 62.689 17.4414C62.2827 17.6549 61.814 17.7617 61.2827 17.7617C60.7671 17.7617 60.3192 17.6576 59.939 17.4492C59.5588 17.2409 59.2384 16.9492 58.978 16.5742C58.7228 16.194 58.5171 15.7539 58.3608 15.2539C58.2046 14.7539 58.0848 14.2174 58.0015 13.6445V13.2148C58.0848 12.6003 58.2046 12.0378 58.3608 11.5273C58.5171 11.0117 58.7228 10.5664 58.978 10.1914C59.2384 9.8112 59.5562 9.51693 59.9312 9.30859C60.3114 9.10026 60.7567 8.99609 61.2671 8.99609C61.8035 8.99609 62.2749 9.09766 62.6812 9.30078C63.0926 9.50391 63.4364 9.79557 63.7124 10.1758C63.9937 10.556 64.2046 11.0091 64.3452 11.5352C64.491 12.0612 64.564 12.6445 64.564 13.2852ZM62.3062 13.4492V13.2852C62.3062 12.9258 62.2749 12.5951 62.2124 12.293C62.1551 11.9857 62.0614 11.7174 61.9312 11.4883C61.8062 11.2591 61.6395 11.082 61.4312 10.957C61.228 10.8268 60.9806 10.7617 60.689 10.7617C60.3817 10.7617 60.1187 10.8112 59.8999 10.9102C59.6864 11.0091 59.5119 11.1523 59.3765 11.3398C59.241 11.5273 59.1395 11.7513 59.0718 12.0117C59.0041 12.2721 58.9624 12.5664 58.9468 12.8945V13.9805C58.9728 14.3659 59.0457 14.7122 59.1655 15.0195C59.2853 15.3216 59.4702 15.5612 59.7202 15.7383C59.9702 15.9154 60.2983 16.0039 60.7046 16.0039C61.0015 16.0039 61.2515 15.9388 61.4546 15.8086C61.6577 15.6732 61.8218 15.4883 61.9468 15.2539C62.077 15.0195 62.1681 14.7487 62.2202 14.4414C62.2775 14.1341 62.3062 13.8034 62.3062 13.4492ZM70.5249 15.6992V11.9336C70.5249 11.6628 70.4806 11.431 70.3921 11.2383C70.3035 11.0404 70.1655 10.8867 69.978 10.7773C69.7957 10.668 69.5588 10.6133 69.2671 10.6133C69.0171 10.6133 68.8009 10.6576 68.6187 10.7461C68.4364 10.8294 68.2957 10.9518 68.1968 11.1133C68.0978 11.2695 68.0483 11.4544 68.0483 11.668H65.7983C65.7983 11.3086 65.8817 10.9674 66.0483 10.6445C66.215 10.3216 66.4572 10.0378 66.7749 9.79297C67.0926 9.54297 67.4702 9.34766 67.9077 9.20703C68.3504 9.06641 68.8452 8.99609 69.3921 8.99609C70.0483 8.99609 70.6317 9.10547 71.1421 9.32422C71.6525 9.54297 72.0535 9.87109 72.3452 10.3086C72.6421 10.7461 72.7905 11.293 72.7905 11.9492V15.5664C72.7905 16.0299 72.8192 16.4102 72.8765 16.707C72.9338 16.9987 73.0171 17.2539 73.1265 17.4727V17.6055H70.853C70.7437 17.3763 70.6603 17.0898 70.603 16.7461C70.5509 16.3971 70.5249 16.0482 70.5249 15.6992ZM70.8218 12.457L70.8374 13.7305H69.5796C69.2827 13.7305 69.0249 13.7643 68.8062 13.832C68.5874 13.8997 68.4077 13.9961 68.2671 14.1211C68.1265 14.2409 68.0223 14.3815 67.9546 14.543C67.8921 14.7044 67.8608 14.8815 67.8608 15.0742C67.8608 15.2669 67.9051 15.4414 67.9937 15.5977C68.0822 15.7487 68.2098 15.8685 68.3765 15.957C68.5431 16.0404 68.7384 16.082 68.9624 16.082C69.3009 16.082 69.5952 16.0143 69.8452 15.8789C70.0952 15.7435 70.2879 15.5768 70.4233 15.3789C70.564 15.181 70.6369 14.9935 70.6421 14.8164L71.2358 15.7695C71.1525 15.9831 71.0379 16.2044 70.8921 16.4336C70.7515 16.6628 70.5718 16.8789 70.353 17.082C70.1343 17.2799 69.8713 17.444 69.564 17.5742C69.2567 17.6992 68.8921 17.7617 68.4702 17.7617C67.9338 17.7617 67.4468 17.6549 67.0093 17.4414C66.577 17.2227 66.2332 16.9232 65.978 16.543C65.728 16.1576 65.603 15.7201 65.603 15.2305C65.603 14.7878 65.6864 14.3945 65.853 14.0508C66.0197 13.707 66.2645 13.418 66.5874 13.1836C66.9155 12.944 67.3244 12.7643 67.814 12.6445C68.3035 12.5195 68.8713 12.457 69.5171 12.457H70.8218ZM79.8765 9.15234H81.9155V17.3242C81.9155 18.0951 81.7437 18.7487 81.3999 19.2852C81.0614 19.8268 80.5874 20.2357 79.978 20.5117C79.3687 20.793 78.6603 20.9336 77.853 20.9336C77.4989 20.9336 77.1239 20.8867 76.728 20.793C76.3374 20.6992 75.9624 20.5534 75.603 20.3555C75.2489 20.1576 74.952 19.9076 74.7124 19.6055L75.7046 18.2773C75.965 18.5794 76.2671 18.8138 76.6108 18.9805C76.9546 19.1523 77.3348 19.2383 77.7515 19.2383C78.1577 19.2383 78.5015 19.1628 78.7827 19.0117C79.064 18.8659 79.2801 18.6497 79.4312 18.3633C79.5822 18.082 79.6577 17.7409 79.6577 17.3398V11.1055L79.8765 9.15234ZM74.189 13.4805V13.3164C74.189 12.6706 74.2671 12.0846 74.4233 11.5586C74.5848 11.0273 74.8114 10.5716 75.103 10.1914C75.3999 9.8112 75.7593 9.51693 76.1812 9.30859C76.603 9.10026 77.0796 8.99609 77.6108 8.99609C78.1733 8.99609 78.6447 9.10026 79.0249 9.30859C79.4051 9.51693 79.7176 9.8138 79.9624 10.1992C80.2072 10.5794 80.3973 11.0299 80.5327 11.5508C80.6733 12.0664 80.7827 12.6315 80.8608 13.2461V13.6055C80.7827 14.194 80.6655 14.7409 80.5093 15.2461C80.353 15.7513 80.1473 16.194 79.8921 16.5742C79.6369 16.9492 79.3192 17.2409 78.939 17.4492C78.564 17.6576 78.116 17.7617 77.5952 17.7617C77.0744 17.7617 76.603 17.6549 76.1812 17.4414C75.7645 17.2279 75.4077 16.9284 75.1108 16.543C74.814 16.1576 74.5848 15.7044 74.4233 15.1836C74.2671 14.6628 74.189 14.0951 74.189 13.4805ZM76.439 13.3164V13.4805C76.439 13.8294 76.4728 14.1549 76.5405 14.457C76.6082 14.7591 76.7124 15.0273 76.853 15.2617C76.9989 15.4909 77.1785 15.6706 77.3921 15.8008C77.6108 15.9258 77.8687 15.9883 78.1655 15.9883C78.577 15.9883 78.9129 15.9023 79.1733 15.7305C79.4338 15.5534 79.6291 15.3112 79.7593 15.0039C79.8895 14.6966 79.965 14.3424 79.9858 13.9414V12.918C79.9754 12.5898 79.9312 12.2956 79.853 12.0352C79.7749 11.7695 79.6655 11.543 79.5249 11.3555C79.3843 11.168 79.202 11.0221 78.978 10.918C78.7541 10.8138 78.4884 10.7617 78.1812 10.7617C77.8843 10.7617 77.6265 10.8294 77.4077 10.9648C77.1942 11.0951 77.0145 11.2747 76.8687 11.5039C76.728 11.7331 76.6213 12.0039 76.5483 12.3164C76.4754 12.6237 76.439 12.957 76.439 13.3164ZM87.5562 17.7617C86.8999 17.7617 86.3114 17.6576 85.7905 17.4492C85.2697 17.2357 84.827 16.9414 84.4624 16.5664C84.103 16.1914 83.827 15.7565 83.6343 15.2617C83.4416 14.7617 83.3452 14.2305 83.3452 13.668V13.3555C83.3452 12.7148 83.4364 12.1289 83.6187 11.5977C83.8009 11.0664 84.0614 10.6055 84.3999 10.2148C84.7437 9.82422 85.1603 9.52474 85.6499 9.31641C86.1395 9.10286 86.6916 8.99609 87.3062 8.99609C87.9051 8.99609 88.4364 9.09505 88.8999 9.29297C89.3634 9.49089 89.7515 9.77214 90.064 10.1367C90.3817 10.5013 90.6213 10.9388 90.7827 11.4492C90.9442 11.9544 91.0249 12.5169 91.0249 13.1367V14.0742H84.3062V12.5742H88.814V12.4023C88.814 12.0898 88.7567 11.8112 88.6421 11.5664C88.5327 11.3164 88.366 11.1185 88.1421 10.9727C87.9181 10.8268 87.6317 10.7539 87.2827 10.7539C86.9858 10.7539 86.7306 10.819 86.5171 10.9492C86.3035 11.0794 86.1291 11.2617 85.9937 11.4961C85.8634 11.7305 85.7645 12.0065 85.6968 12.3242C85.6343 12.6367 85.603 12.9805 85.603 13.3555V13.668C85.603 14.0065 85.6499 14.319 85.7437 14.6055C85.8426 14.8919 85.9806 15.1393 86.1577 15.3477C86.34 15.556 86.5588 15.7174 86.814 15.832C87.0744 15.9466 87.3687 16.0039 87.6968 16.0039C88.103 16.0039 88.4806 15.9258 88.8296 15.7695C89.1838 15.6081 89.4884 15.3659 89.7437 15.043L90.8374 16.2305C90.6603 16.4857 90.4181 16.7305 90.1108 16.9648C89.8088 17.1992 89.4442 17.3919 89.0171 17.543C88.59 17.6888 88.103 17.7617 87.5562 17.7617Z" fill="white"/>
<path d="M105.041 5.5H103.241C102.121 5.5 101.561 5.5 101.133 5.718C100.756 5.90969 100.45 6.21565 100.259 6.592C100.041 7.02 100.041 7.58 100.041 8.7V16.3C100.041 17.42 100.041 17.98 100.259 18.408C100.45 18.7843 100.756 19.0903 101.133 19.282C101.56 19.5 102.12 19.5 103.238 19.5H110.844C111.962 19.5 112.521 19.5 112.948 19.282C113.325 19.09 113.631 18.784 113.823 18.408C114.041 17.98 114.041 17.421 114.041 16.303V14.5M115.041 9.5V4.5M115.041 4.5H110.041M115.041 4.5L108.041 11.5" stroke="white" stroke-width="2" stroke-linecap="round" stroke-linejoin="round"/>
</svg>
