<svg width="353" height="104" viewBox="0 0 353 104" fill="none" xmlns="http://www.w3.org/2000/svg">
<path d="M51.5 33.7999V10.3999H28.325C26.2762 10.3999 24.3113 11.2217 22.8626 12.6845C21.4139 14.1473 20.6 16.1312 20.6 18.1999V57.6419C22.248 58.2295 23.6333 59.3631 24.5552 60.8295C26.3754 59.0638 28.6695 57.8773 31.1522 57.4175C33.6349 56.9577 36.1966 57.2449 38.519 58.2434C40.8413 59.2418 42.8218 60.9075 44.2141 63.0333C45.6064 65.1591 46.3492 67.6513 46.35 70.1999C46.35 72.5087 45.356 74.5835 43.775 76.0135C45.4178 78.2235 46.35 80.9483 46.35 83.8135V85.7999C46.35 88.7275 45.3921 91.4263 43.775 93.5999H74.675C76.7238 93.5999 78.6887 92.7781 80.1374 91.3153C81.5861 89.8526 82.4 87.8686 82.4 85.7999V41.5999H59.225C57.1762 41.5999 55.2113 40.7781 53.7626 39.3153C52.3139 37.8526 51.5 35.8686 51.5 33.7999ZM56.65 33.7999V11.6999L81.1125 36.3999H59.225C58.5421 36.3999 57.8871 36.126 57.4042 35.6384C56.9213 35.1508 56.65 34.4895 56.65 33.7999ZM18.025 62.3999C17.3421 62.3999 16.6871 62.6738 16.2042 63.1614C15.7213 63.649 15.45 64.3103 15.45 64.9999V85.7999C15.45 86.4895 15.1787 87.1508 14.6958 87.6384C14.2129 88.126 13.5579 88.3999 12.875 88.3999C12.1921 88.3999 11.5371 88.126 11.0542 87.6384C10.5713 87.1508 10.3 86.4895 10.3 85.7999V83.1999C10.3 82.5103 10.0287 81.849 9.54579 81.3614C9.06289 80.8738 8.40793 80.5999 7.72499 80.5999C7.04206 80.5999 6.3871 80.8738 5.90419 81.3614C5.42129 81.849 5.14999 82.5103 5.14999 83.1999V85.7999C5.14999 87.8686 5.96388 89.8526 7.41259 91.3153C8.86131 92.7781 10.8262 93.5999 12.875 93.5999C14.9238 93.5999 16.8887 92.7781 18.3374 91.3153C19.7861 89.8526 20.6 87.8686 20.6 85.7999V64.9999C20.6 64.3103 20.3287 63.649 19.8458 63.1614C19.3629 62.6738 18.7079 62.3999 18.025 62.3999ZM25.75 70.1999C25.75 68.1312 26.5639 66.1473 28.0126 64.6845C29.4613 63.2217 31.4262 62.3999 33.475 62.3999C35.5238 62.3999 37.4887 63.2217 38.9374 64.6845C40.3861 66.1473 41.2 68.1312 41.2 70.1999C41.2 70.8895 40.9287 71.5508 40.4458 72.0384C39.9629 72.526 39.3079 72.7999 38.625 72.7999C37.9421 72.7999 37.2871 72.526 36.8042 72.0384C36.3213 71.5508 36.05 70.8895 36.05 70.1999C36.05 69.5103 35.7787 68.849 35.2958 68.3614C34.8129 67.8738 34.1579 67.5999 33.475 67.5999C32.7921 67.5999 32.1371 67.8738 31.6542 68.3614C31.1713 68.849 30.9 69.5103 30.9 70.1999V72.1863C30.9 72.6688 31.033 73.1417 31.284 73.5522C31.535 73.9627 31.8942 74.2946 32.3214 74.5107L36.9306 76.8351C38.2139 77.4832 39.2931 78.4793 40.0472 79.7119C40.8012 80.9445 41.2004 82.3647 41.2 83.8135V85.7999C41.2 87.8686 40.3861 89.8526 38.9374 91.3153C37.4887 92.7781 35.5238 93.5999 33.475 93.5999C31.4262 93.5999 29.4613 92.7781 28.0126 91.3153C26.5639 89.8526 25.75 87.8686 25.75 85.7999C25.75 85.1103 26.0213 84.449 26.5042 83.9614C26.9871 83.4738 27.6421 83.1999 28.325 83.1999C29.0079 83.1999 29.6629 83.4738 30.1458 83.9614C30.6287 84.449 30.9 85.1103 30.9 85.7999C30.9 86.4895 31.1713 87.1508 31.6542 87.6384C32.1371 88.126 32.7921 88.3999 33.475 88.3999C34.1579 88.3999 34.8129 88.126 35.2958 87.6384C35.7787 87.1508 36.05 86.4895 36.05 85.7999V83.8135C36.05 83.3311 35.917 82.8581 35.666 82.4476C35.415 82.0371 35.0558 81.7052 34.6286 81.4891L30.0193 79.1647C28.7361 78.5166 27.6569 77.5205 26.9028 76.2879C26.1488 75.0553 25.7496 73.6351 25.75 72.1863V70.1999Z" fill="#080202"/>
<path d="M173.875 65.5C173.875 66.3951 173.519 67.2536 172.886 67.8865C172.254 68.5194 171.395 68.875 170.5 68.875H167.125V89.125C167.125 90.0201 166.769 90.8786 166.136 91.5115C165.504 92.1444 164.645 92.5 163.75 92.5C162.855 92.5 161.996 92.1444 161.364 91.5115C160.731 90.8786 160.375 90.0201 160.375 89.125V68.875H157C156.105 68.875 155.246 68.5194 154.614 67.8865C153.981 67.2536 153.625 66.3951 153.625 65.5C153.625 64.6049 153.981 63.7464 154.614 63.1135C155.246 62.4806 156.105 62.125 157 62.125H170.5C171.395 62.125 172.254 62.4806 172.886 63.1135C173.519 63.7464 173.875 64.6049 173.875 65.5ZM146.875 62.125C145.98 62.125 145.121 62.4806 144.489 63.1135C143.856 63.7464 143.5 64.6049 143.5 65.5V73.9375H136.75V65.5C136.75 64.6049 136.394 63.7464 135.761 63.1135C135.129 62.4806 134.27 62.125 133.375 62.125C132.48 62.125 131.621 62.4806 130.989 63.1135C130.356 63.7464 130 64.6049 130 65.5V89.125C130 90.0201 130.356 90.8786 130.989 91.5115C131.621 92.1444 132.48 92.5 133.375 92.5C134.27 92.5 135.129 92.1444 135.761 91.5115C136.394 90.8786 136.75 90.0201 136.75 89.125V80.6875H143.5V89.125C143.5 90.0201 143.856 90.8786 144.489 91.5115C145.121 92.1444 145.98 92.5 146.875 92.5C147.77 92.5 148.629 92.1444 149.261 91.5115C149.894 90.8786 150.25 90.0201 150.25 89.125V65.5C150.25 64.6049 149.894 63.7464 149.261 63.1135C148.629 62.4806 147.77 62.125 146.875 62.125ZM221.125 85.75H216.062V65.5C216.062 64.6049 215.707 63.7464 215.074 63.1135C214.441 62.4806 213.583 62.125 212.688 62.125C211.792 62.125 210.934 62.4806 210.301 63.1135C209.668 63.7464 209.312 64.6049 209.312 65.5V89.125C209.312 90.0201 209.668 90.8786 210.301 91.5115C210.934 92.1444 211.792 92.5 212.688 92.5H221.125C222.02 92.5 222.879 92.1444 223.511 91.5115C224.144 90.8786 224.5 90.0201 224.5 89.125C224.5 88.2299 224.144 87.3714 223.511 86.7385C222.879 86.1056 222.02 85.75 221.125 85.75ZM201.778 62.2473C201.066 62.0497 200.31 62.0908 199.624 62.3644C198.938 62.6379 198.361 63.1289 197.981 63.7619L190.75 75.8148L183.519 63.7619C183.139 63.1288 182.562 62.6378 181.877 62.364C181.191 62.0902 180.435 62.0487 179.723 62.2459C179.012 62.4432 178.385 62.8682 177.938 63.456C177.491 64.0437 177.25 64.7618 177.25 65.5V89.125C177.25 90.0201 177.606 90.8786 178.239 91.5115C178.871 92.1444 179.73 92.5 180.625 92.5C181.52 92.5 182.379 92.1444 183.011 91.5115C183.644 90.8786 184 90.0201 184 89.125V77.6838L187.856 84.1131C188.156 84.6129 188.58 85.0265 189.087 85.3137C189.594 85.6008 190.167 85.7517 190.75 85.7517C191.333 85.7517 191.906 85.6008 192.413 85.3137C192.92 85.0265 193.344 84.6129 193.644 84.1131L197.5 77.6838V89.125C197.5 90.0201 197.856 90.8786 198.489 91.5115C199.121 92.1444 199.98 92.5 200.875 92.5C201.77 92.5 202.629 92.1444 203.261 91.5115C203.894 90.8786 204.25 90.0201 204.25 89.125V65.5C204.25 64.7621 204.008 64.0446 203.562 63.4571C203.115 62.8697 202.489 62.4447 201.778 62.2473ZM207.625 52C206.73 52 205.871 51.6444 205.239 51.0115C204.606 50.3785 204.25 49.5201 204.25 48.625V41.875H184C183.105 41.875 182.246 41.5194 181.614 40.8865C180.981 40.2535 180.625 39.3951 180.625 38.5V18.25H143.5V48.625C143.5 49.5201 143.144 50.3785 142.511 51.0115C141.879 51.6444 141.02 52 140.125 52C139.23 52 138.371 51.6444 137.739 51.0115C137.106 50.3785 136.75 49.5201 136.75 48.625V18.25C136.75 16.4598 137.461 14.7429 138.727 13.477C139.993 12.2112 141.71 11.5 143.5 11.5H184C184.443 11.4997 184.882 11.5867 185.292 11.756C185.702 11.9254 186.074 12.1739 186.388 12.4872L210.013 36.1122C210.326 36.4259 210.575 36.7982 210.744 37.2079C210.913 37.6176 211 38.0567 211 38.5V48.625C211 49.5201 210.644 50.3785 210.011 51.0115C209.379 51.6444 208.52 52 207.625 52ZM199.479 35.125L187.375 23.0214V35.125H199.479Z" fill="#080202"/>
<path d="M265.38 77.9516C265.38 82.7094 268.486 86.6022 272.301 86.6022C273.136 86.5835 273.958 86.3951 274.718 86.0486C275.478 85.7021 276.16 85.2047 276.721 84.5866C277.031 84.2412 277.407 83.9616 277.827 83.7645C278.247 83.5673 278.702 83.4566 279.166 83.439C279.629 83.4214 280.092 83.4971 280.526 83.6618C280.959 83.8265 281.355 84.0767 281.691 84.3975C282.026 84.7184 282.293 85.1034 282.476 85.5296C282.659 85.9557 282.755 86.4144 282.758 86.8783C282.76 87.3423 282.669 87.8019 282.49 88.2301C282.312 88.6582 282.049 89.0459 281.717 89.3703C280.514 90.668 279.057 91.7058 277.438 92.4198C275.819 93.1339 274.071 93.5092 272.301 93.5226C264.667 93.5226 258.46 86.5373 258.46 77.9516C258.46 69.366 264.667 62.3807 272.301 62.3807C274.071 62.3941 275.819 62.7694 277.438 63.4834C279.057 64.1975 280.514 65.2353 281.717 66.533C282.049 66.8574 282.312 67.2451 282.49 67.6732C282.669 68.1013 282.76 68.561 282.758 69.0249C282.755 69.4889 282.659 69.9476 282.476 70.3737C282.293 70.7999 282.026 71.1849 281.691 71.5057C281.355 71.8266 280.959 72.0768 280.526 72.2415C280.092 72.4061 279.629 72.4819 279.166 72.4643C278.702 72.4466 278.247 72.336 277.827 72.1388C277.407 71.9417 277.031 71.6621 276.721 71.3167C276.16 70.6986 275.478 70.2012 274.718 69.8547C273.958 69.5082 273.136 69.3198 272.301 69.3011C268.486 69.3011 265.38 73.1939 265.38 77.9516ZM299.81 74.193C298.079 73.6913 296.289 73.1766 295.29 72.5321C294.745 72.1817 294.758 72.0996 294.805 71.7103C294.812 71.3958 294.894 71.0874 295.044 70.8111C295.195 70.5349 295.409 70.2989 295.67 70.1229C297.66 68.7734 302.305 69.3746 304.247 69.8807C305.135 70.1141 306.079 69.9853 306.872 69.5226C307.665 69.0598 308.242 68.301 308.475 67.4131C308.709 66.5253 308.58 65.581 308.117 64.7881C307.654 63.9952 306.896 63.4186 306.008 63.1852C305.091 62.9473 296.925 60.9274 291.808 64.379C290.724 65.1051 289.814 66.0609 289.141 67.1784C288.468 68.2959 288.05 69.5478 287.915 70.8452C287.05 77.7138 293.815 79.6731 297.863 80.8409C303.084 82.3504 303.542 82.969 303.391 84.1238C303.257 85.1662 302.846 85.5684 302.465 85.8236C300.476 87.1472 295.904 86.4984 294.009 85.9793C293.13 85.746 292.194 85.8685 291.404 86.3205C290.614 86.7724 290.034 87.5173 289.789 88.3938C289.545 89.2704 289.655 90.208 290.097 91.0036C290.539 91.7992 291.276 92.3888 292.149 92.6446C294.293 93.2065 296.499 93.4971 298.715 93.5096C301.237 93.5096 304.035 93.0771 306.28 91.5805C307.388 90.8443 308.319 89.8717 309.006 88.7327C309.694 87.5937 310.12 86.3166 310.255 84.9932C311.228 77.5191 304.083 75.43 299.81 74.193ZM327.491 74.193C325.761 73.6913 323.97 73.1766 322.971 72.5321C322.431 72.1817 322.439 72.0996 322.487 71.7103C322.493 71.3958 322.575 71.0874 322.726 70.8111C322.876 70.5349 323.091 70.2989 323.352 70.1229C325.342 68.7734 329.987 69.3746 331.925 69.8807C332.812 70.1141 333.757 69.9853 334.55 69.5226C335.343 69.0598 335.919 68.301 336.153 67.4131C336.386 66.5253 336.257 65.581 335.794 64.7881C335.332 63.9952 334.573 63.4186 333.685 63.1852C332.772 62.9473 324.602 60.9274 319.485 64.379C318.406 65.108 317.5 66.0649 316.832 67.1822C316.163 68.2995 315.747 69.5499 315.614 70.8452C314.749 77.7138 321.518 79.6731 325.562 80.8409C330.778 82.3504 331.237 82.969 331.09 84.1238C330.956 85.1662 330.545 85.5684 330.16 85.8236C328.17 87.1472 323.603 86.4984 321.708 85.9793C320.823 85.7327 319.875 85.848 319.075 86.2998C318.274 86.7516 317.686 87.5029 317.439 88.3885C317.193 89.2741 317.308 90.2214 317.76 91.022C318.212 91.8226 318.963 92.4109 319.848 92.6575C321.994 93.2193 324.201 93.51 326.419 93.5226C328.936 93.5226 331.739 93.0901 333.983 91.5935C335.091 90.857 336.021 89.8843 336.708 88.7453C337.394 87.6063 337.82 86.3293 337.954 85.0061C338.91 77.5191 331.765 75.43 327.487 74.193H327.491ZM261.92 48.5399V17.398C261.92 15.5626 262.649 13.8023 263.947 12.5045C265.245 11.2067 267.005 10.4775 268.841 10.4775H310.363C310.818 10.4772 311.268 10.5664 311.688 10.74C312.108 10.9137 312.49 11.1684 312.811 11.4897L337.033 35.7111C337.354 36.0327 337.609 36.4144 337.782 36.8345C337.956 37.2545 338.045 37.7047 338.045 38.1592V48.5399C338.045 49.4576 337.68 50.3377 337.031 50.9866C336.382 51.6355 335.502 52.0001 334.585 52.0001C333.667 52.0001 332.787 51.6355 332.138 50.9866C331.489 50.3377 331.124 49.4576 331.124 48.5399V41.6194H310.363C309.445 41.6194 308.565 41.2549 307.916 40.606C307.268 39.957 306.903 39.0769 306.903 38.1592V17.398H268.841V48.5399C268.841 49.4576 268.476 50.3377 267.827 50.9866C267.178 51.6355 266.298 52.0001 265.38 52.0001C264.463 52.0001 263.583 51.6355 262.934 50.9866C262.285 50.3377 261.92 49.4576 261.92 48.5399ZM313.823 34.699H326.228L313.823 22.2898V34.699Z" fill="#080202"/>
</svg>
